<svg xmlns="http://www.w3.org/2000/svg" viewBox="0 0 800 120" shape-rendering="crispEdges">
<rect width="800" height="120" fill="#f7f7f7"/>
<rect x="0" y="88" width="4" height="32" fill="#e8eaed"/>
<rect x="4" y="88" width="4" height="32" fill="#e8eaed"/>
<rect x="8" y="88" width="4" height="32" fill="#e8eaed"/>
<rect x="12" y="88" width="4" height="32" fill="#e8eaed"/>
<rect x="16" y="88" width="4" height="32" fill="#e8eaed"/>
<rect x="20" y="88" width="4" height="32" fill="#e8eaed"/>
<rect x="24" y="88" width="4" height="32" fill="#e8eaed"/>
<rect x="28" y="88" width="4" height="32" fill="#e8eaed"/>
<rect x="32" y="80" width="4" height="40" fill="#e8eaed"/>
<rect x="36" y="80" width="4" height="40" fill="#e8eaed"/>
<rect x="40" y="80" width="4" height="40" fill="#e8eaed"/>
<rect x="44" y="80" width="4" height="40" fill="#e8eaed"/>
<rect x="48" y="80" width="4" height="40" fill="#e8eaed"/>
<rect x="52" y="80" width="4" height="40" fill="#e8eaed"/>
<rect x="56" y="80" width="4" height="40" fill="#e8eaed"/>
<rect x="60" y="80" width="4" height="40" fill="#e8eaed"/>
<rect x="64" y="80" width="4" height="40" fill="#e8eaed"/>
<rect x="68" y="80" width="4" height="40" fill="#e8eaed"/>
<rect x="72" y="80" width="4" height="40" fill="#e8eaed"/>
<rect x="76" y="80" width="4" height="40" fill="#e8eaed"/>
<rect x="80" y="80" width="4" height="40" fill="#e8eaed"/>
<rect x="84" y="80" width="4" height="40" fill="#e8eaed"/>
<rect x="88" y="80" width="4" height="40" fill="#e8eaed"/>
<rect x="92" y="80" width="4" height="40" fill="#e8eaed"/>
<rect x="96" y="80" width="4" height="40" fill="#e8eaed"/>
<rect x="100" y="72" width="4" height="48" fill="#e8eaed"/>
<rect x="104" y="72" width="4" height="48" fill="#e8eaed"/>
<rect x="108" y="72" width="4" height="48" fill="#e8eaed"/>
<rect x="112" y="72" width="4" height="48" fill="#e8eaed"/>
<rect x="116" y="72" width="4" height="48" fill="#e8eaed"/>
<rect x="120" y="72" width="4" height="48" fill="#e8eaed"/>
<rect x="124" y="72" width="4" height="48" fill="#e8eaed"/>
<rect x="128" y="72" width="4" height="48" fill="#e8eaed"/>
<rect x="132" y="72" width="4" height="48" fill="#e8eaed"/>
<rect x="136" y="72" width="4" height="48" fill="#e8eaed"/>
<rect x="140" y="72" width="4" height="48" fill="#e8eaed"/>
<rect x="144" y="72" width="4" height="48" fill="#e8eaed"/>
<rect x="148" y="72" width="4" height="48" fill="#e8eaed"/>
<rect x="152" y="72" width="4" height="48" fill="#e8eaed"/>
<rect x="156" y="72" width="4" height="48" fill="#e8eaed"/>
<rect x="160" y="72" width="4" height="48" fill="#e8eaed"/>
<rect x="164" y="72" width="4" height="48" fill="#e8eaed"/>
<rect x="168" y="72" width="4" height="48" fill="#e8eaed"/>
<rect x="172" y="64" width="4" height="56" fill="#e8eaed"/>
<rect x="176" y="64" width="4" height="56" fill="#e8eaed"/>
<rect x="180" y="64" width="4" height="56" fill="#e8eaed"/>
<rect x="184" y="64" width="4" height="56" fill="#e8eaed"/>
<rect x="188" y="64" width="4" height="56" fill="#e8eaed"/>
<rect x="192" y="64" width="4" height="56" fill="#e8eaed"/>
<rect x="196" y="64" width="4" height="56" fill="#e8eaed"/>
<rect x="200" y="64" width="4" height="56" fill="#e8eaed"/>
<rect x="204" y="64" width="4" height="56" fill="#e8eaed"/>
<rect x="208" y="64" width="4" height="56" fill="#e8eaed"/>
<rect x="212" y="64" width="4" height="56" fill="#e8eaed"/>
<rect x="216" y="64" width="4" height="56" fill="#e8eaed"/>
<rect x="220" y="64" width="4" height="56" fill="#e8eaed"/>
<rect x="224" y="64" width="4" height="56" fill="#e8eaed"/>
<rect x="228" y="64" width="4" height="56" fill="#e8eaed"/>
<rect x="232" y="64" width="4" height="56" fill="#e8eaed"/>
<rect x="236" y="64" width="4" height="56" fill="#e8eaed"/>
<rect x="240" y="64" width="4" height="56" fill="#e8eaed"/>
<rect x="244" y="64" width="4" height="56" fill="#e8eaed"/>
<rect x="248" y="64" width="4" height="56" fill="#e8eaed"/>
<rect x="252" y="64" width="4" height="56" fill="#e8eaed"/>
<rect x="256" y="56" width="4" height="64" fill="#e8eaed"/>
<rect x="260" y="56" width="4" height="64" fill="#e8eaed"/>
<rect x="264" y="56" width="4" height="64" fill="#e8eaed"/>
<rect x="268" y="56" width="4" height="64" fill="#e8eaed"/>
<rect x="272" y="56" width="4" height="64" fill="#e8eaed"/>
<rect x="276" y="56" width="4" height="64" fill="#e8eaed"/>
<rect x="280" y="56" width="4" height="64" fill="#e8eaed"/>
<rect x="284" y="56" width="4" height="64" fill="#e8eaed"/>
<rect x="288" y="56" width="4" height="64" fill="#e8eaed"/>
<rect x="292" y="56" width="4" height="64" fill="#e8eaed"/>
<rect x="296" y="56" width="4" height="64" fill="#e8eaed"/>
<rect x="300" y="56" width="4" height="64" fill="#e8eaed"/>
<rect x="304" y="56" width="4" height="64" fill="#e8eaed"/>
<rect x="308" y="56" width="4" height="64" fill="#e8eaed"/>
<rect x="312" y="56" width="4" height="64" fill="#e8eaed"/>
<rect x="316" y="56" width="4" height="64" fill="#e8eaed"/>
<rect x="320" y="56" width="4" height="64" fill="#e8eaed"/>
<rect x="324" y="56" width="4" height="64" fill="#e8eaed"/>
<rect x="328" y="56" width="4" height="64" fill="#e8eaed"/>
<rect x="332" y="56" width="4" height="64" fill="#e8eaed"/>
<rect x="336" y="56" width="4" height="64" fill="#e8eaed"/>
<rect x="340" y="56" width="4" height="64" fill="#e8eaed"/>
<rect x="344" y="56" width="4" height="64" fill="#e8eaed"/>
<rect x="348" y="56" width="4" height="64" fill="#e8eaed"/>
<rect x="352" y="56" width="4" height="64" fill="#e8eaed"/>
<rect x="356" y="56" width="4" height="64" fill="#e8eaed"/>
<rect x="360" y="56" width="4" height="64" fill="#e8eaed"/>
<rect x="364" y="56" width="4" height="64" fill="#e8eaed"/>
<rect x="368" y="56" width="4" height="64" fill="#e8eaed"/>
<rect x="372" y="56" width="4" height="64" fill="#e8eaed"/>
<rect x="376" y="56" width="4" height="64" fill="#e8eaed"/>
<rect x="380" y="56" width="4" height="64" fill="#e8eaed"/>
<rect x="384" y="56" width="4" height="64" fill="#e8eaed"/>
<rect x="388" y="56" width="4" height="64" fill="#e8eaed"/>
<rect x="392" y="56" width="4" height="64" fill="#e8eaed"/>
<rect x="396" y="56" width="4" height="64" fill="#e8eaed"/>
<rect x="400" y="56" width="4" height="64" fill="#e8eaed"/>
<rect x="404" y="56" width="4" height="64" fill="#e8eaed"/>
<rect x="408" y="56" width="4" height="64" fill="#e8eaed"/>
<rect x="412" y="56" width="4" height="64" fill="#e8eaed"/>
<rect x="416" y="56" width="4" height="64" fill="#e8eaed"/>
<rect x="420" y="56" width="4" height="64" fill="#e8eaed"/>
<rect x="424" y="56" width="4" height="64" fill="#e8eaed"/>
<rect x="428" y="56" width="4" height="64" fill="#e8eaed"/>
<rect x="432" y="56" width="4" height="64" fill="#e8eaed"/>
<rect x="436" y="56" width="4" height="64" fill="#e8eaed"/>
<rect x="440" y="56" width="4" height="64" fill="#e8eaed"/>
<rect x="444" y="56" width="4" height="64" fill="#e8eaed"/>
<rect x="448" y="56" width="4" height="64" fill="#e8eaed"/>
<rect x="452" y="56" width="4" height="64" fill="#e8eaed"/>
<rect x="456" y="56" width="4" height="64" fill="#e8eaed"/>
<rect x="460" y="56" width="4" height="64" fill="#e8eaed"/>
<rect x="464" y="56" width="4" height="64" fill="#e8eaed"/>
<rect x="468" y="56" width="4" height="64" fill="#e8eaed"/>
<rect x="472" y="56" width="4" height="64" fill="#e8eaed"/>
<rect x="476" y="56" width="4" height="64" fill="#e8eaed"/>
<rect x="480" y="56" width="4" height="64" fill="#e8eaed"/>
<rect x="484" y="56" width="4" height="64" fill="#e8eaed"/>
<rect x="488" y="56" width="4" height="64" fill="#e8eaed"/>
<rect x="492" y="56" width="4" height="64" fill="#e8eaed"/>
<rect x="496" y="56" width="4" height="64" fill="#e8eaed"/>
<rect x="500" y="56" width="4" height="64" fill="#e8eaed"/>
<rect x="504" y="56" width="4" height="64" fill="#e8eaed"/>
<rect x="508" y="56" width="4" height="64" fill="#e8eaed"/>
<rect x="512" y="56" width="4" height="64" fill="#e8eaed"/>
<rect x="516" y="56" width="4" height="64" fill="#e8eaed"/>
<rect x="520" y="56" width="4" height="64" fill="#e8eaed"/>
<rect x="524" y="56" width="4" height="64" fill="#e8eaed"/>
<rect x="528" y="56" width="4" height="64" fill="#e8eaed"/>
<rect x="532" y="56" width="4" height="64" fill="#e8eaed"/>
<rect x="536" y="56" width="4" height="64" fill="#e8eaed"/>
<rect x="540" y="56" width="4" height="64" fill="#e8eaed"/>
<rect x="544" y="56" width="4" height="64" fill="#e8eaed"/>
<rect x="548" y="56" width="4" height="64" fill="#e8eaed"/>
<rect x="552" y="56" width="4" height="64" fill="#e8eaed"/>
<rect x="556" y="56" width="4" height="64" fill="#e8eaed"/>
<rect x="560" y="56" width="4" height="64" fill="#e8eaed"/>
<rect x="564" y="56" width="4" height="64" fill="#e8eaed"/>
<rect x="568" y="56" width="4" height="64" fill="#e8eaed"/>
<rect x="572" y="56" width="4" height="64" fill="#e8eaed"/>
<rect x="576" y="56" width="4" height="64" fill="#e8eaed"/>
<rect x="580" y="56" width="4" height="64" fill="#e8eaed"/>
<rect x="584" y="56" width="4" height="64" fill="#e8eaed"/>
<rect x="588" y="56" width="4" height="64" fill="#e8eaed"/>
<rect x="592" y="56" width="4" height="64" fill="#e8eaed"/>
<rect x="596" y="56" width="4" height="64" fill="#e8eaed"/>
<rect x="600" y="56" width="4" height="64" fill="#e8eaed"/>
<rect x="604" y="56" width="4" height="64" fill="#e8eaed"/>
<rect x="608" y="56" width="4" height="64" fill="#e8eaed"/>
<rect x="612" y="56" width="4" height="64" fill="#e8eaed"/>
<rect x="616" y="56" width="4" height="64" fill="#e8eaed"/>
<rect x="620" y="56" width="4" height="64" fill="#e8eaed"/>
<rect x="624" y="56" width="4" height="64" fill="#e8eaed"/>
<rect x="628" y="56" width="4" height="64" fill="#e8eaed"/>
<rect x="632" y="56" width="4" height="64" fill="#e8eaed"/>
<rect x="636" y="56" width="4" height="64" fill="#e8eaed"/>
<rect x="640" y="56" width="4" height="64" fill="#e8eaed"/>
<rect x="644" y="64" width="4" height="56" fill="#e8eaed"/>
<rect x="648" y="64" width="4" height="56" fill="#e8eaed"/>
<rect x="652" y="64" width="4" height="56" fill="#e8eaed"/>
<rect x="656" y="64" width="4" height="56" fill="#e8eaed"/>
<rect x="660" y="64" width="4" height="56" fill="#e8eaed"/>
<rect x="664" y="64" width="4" height="56" fill="#e8eaed"/>
<rect x="668" y="64" width="4" height="56" fill="#e8eaed"/>
<rect x="672" y="64" width="4" height="56" fill="#e8eaed"/>
<rect x="676" y="64" width="4" height="56" fill="#e8eaed"/>
<rect x="680" y="64" width="4" height="56" fill="#e8eaed"/>
<rect x="684" y="64" width="4" height="56" fill="#e8eaed"/>
<rect x="688" y="64" width="4" height="56" fill="#e8eaed"/>
<rect x="692" y="64" width="4" height="56" fill="#e8eaed"/>
<rect x="696" y="64" width="4" height="56" fill="#e8eaed"/>
<rect x="700" y="64" width="4" height="56" fill="#e8eaed"/>
<rect x="704" y="64" width="4" height="56" fill="#e8eaed"/>
<rect x="708" y="64" width="4" height="56" fill="#e8eaed"/>
<rect x="712" y="64" width="4" height="56" fill="#e8eaed"/>
<rect x="716" y="64" width="4" height="56" fill="#e8eaed"/>
<rect x="720" y="64" width="4" height="56" fill="#e8eaed"/>
<rect x="724" y="64" width="4" height="56" fill="#e8eaed"/>
<rect x="728" y="64" width="4" height="56" fill="#e8eaed"/>
<rect x="732" y="72" width="4" height="48" fill="#e8eaed"/>
<rect x="736" y="72" width="4" height="48" fill="#e8eaed"/>
<rect x="740" y="72" width="4" height="48" fill="#e8eaed"/>
<rect x="744" y="72" width="4" height="48" fill="#e8eaed"/>
<rect x="748" y="72" width="4" height="48" fill="#e8eaed"/>
<rect x="752" y="72" width="4" height="48" fill="#e8eaed"/>
<rect x="756" y="72" width="4" height="48" fill="#e8eaed"/>
<rect x="760" y="72" width="4" height="48" fill="#e8eaed"/>
<rect x="764" y="72" width="4" height="48" fill="#e8eaed"/>
<rect x="768" y="72" width="4" height="48" fill="#e8eaed"/>
<rect x="772" y="72" width="4" height="48" fill="#e8eaed"/>
<rect x="776" y="72" width="4" height="48" fill="#e8eaed"/>
<rect x="780" y="72" width="4" height="48" fill="#e8eaed"/>
<rect x="784" y="72" width="4" height="48" fill="#e8eaed"/>
<rect x="788" y="72" width="4" height="48" fill="#e8eaed"/>
<rect x="792" y="72" width="4" height="48" fill="#e8eaed"/>
<rect x="796" y="72" width="4" height="48" fill="#e8eaed"/>
<rect x="0" y="80" width="4" height="40" fill="120"/>
<rect x="4" y="80" width="4" height="40" fill="120"/>
<rect x="8" y="80" width="4" height="40" fill="120"/>
<rect x="12" y="80" width="4" height="40" fill="120"/>
<rect x="16" y="80" width="4" height="40" fill="120"/>
<rect x="20" y="80" width="4" height="40" fill="120"/>
<rect x="24" y="80" width="4" height="40" fill="120"/>
<rect x="28" y="80" width="4" height="40" fill="120"/>
<rect x="32" y="80" width="4" height="40" fill="120"/>
<rect x="36" y="80" width="4" height="40" fill="120"/>
<rect x="40" y="80" width="4" height="40" fill="120"/>
<rect x="44" y="80" width="4" height="40" fill="120"/>
<rect x="48" y="80" width="4" height="40" fill="120"/>
<rect x="52" y="80" width="4" height="40" fill="120"/>
<rect x="56" y="80" width="4" height="40" fill="120"/>
<rect x="60" y="80" width="4" height="40" fill="120"/>
<rect x="64" y="80" width="4" height="40" fill="120"/>
<rect x="68" y="80" width="4" height="40" fill="120"/>
<rect x="72" y="80" width="4" height="40" fill="120"/>
<rect x="76" y="80" width="4" height="40" fill="120"/>
<rect x="80" y="80" width="4" height="40" fill="120"/>
<rect x="84" y="80" width="4" height="40" fill="120"/>
<rect x="88" y="80" width="4" height="40" fill="120"/>
<rect x="92" y="80" width="4" height="40" fill="120"/>
<rect x="96" y="80" width="4" height="40" fill="120"/>
<rect x="100" y="80" width="4" height="40" fill="120"/>
<rect x="104" y="80" width="4" height="40" fill="120"/>
<rect x="108" y="80" width="4" height="40" fill="120"/>
<rect x="112" y="80" width="4" height="40" fill="120"/>
<rect x="116" y="80" width="4" height="40" fill="120"/>
<rect x="120" y="80" width="4" height="40" fill="120"/>
<rect x="124" y="80" width="4" height="40" fill="120"/>
<rect x="128" y="80" width="4" height="40" fill="120"/>
<rect x="132" y="80" width="4" height="40" fill="120"/>
<rect x="136" y="80" width="4" height="40" fill="120"/>
<rect x="140" y="80" width="4" height="40" fill="120"/>
<rect x="144" y="80" width="4" height="40" fill="120"/>
<rect x="148" y="80" width="4" height="40" fill="120"/>
<rect x="152" y="80" width="4" height="40" fill="120"/>
<rect x="156" y="80" width="4" height="40" fill="120"/>
<rect x="160" y="80" width="4" height="40" fill="120"/>
<rect x="164" y="80" width="4" height="40" fill="120"/>
<rect x="168" y="80" width="4" height="40" fill="120"/>
<rect x="172" y="80" width="4" height="40" fill="120"/>
<rect x="176" y="80" width="4" height="40" fill="120"/>
<rect x="180" y="80" width="4" height="40" fill="120"/>
<rect x="184" y="80" width="4" height="40" fill="120"/>
<rect x="188" y="80" width="4" height="40" fill="120"/>
<rect x="192" y="80" width="4" height="40" fill="120"/>
<rect x="196" y="80" width="4" height="40" fill="120"/>
<rect x="200" y="80" width="4" height="40" fill="120"/>
<rect x="204" y="80" width="4" height="40" fill="120"/>
<rect x="208" y="80" width="4" height="40" fill="120"/>
<rect x="212" y="80" width="4" height="40" fill="120"/>
<rect x="216" y="80" width="4" height="40" fill="120"/>
<rect x="220" y="80" width="4" height="40" fill="120"/>
<rect x="224" y="88" width="4" height="32" fill="120"/>
<rect x="228" y="88" width="4" height="32" fill="120"/>
<rect x="232" y="88" width="4" height="32" fill="120"/>
<rect x="236" y="88" width="4" height="32" fill="120"/>
<rect x="240" y="88" width="4" height="32" fill="120"/>
<rect x="244" y="88" width="4" height="32" fill="120"/>
<rect x="248" y="88" width="4" height="32" fill="120"/>
<rect x="252" y="88" width="4" height="32" fill="120"/>
<rect x="256" y="88" width="4" height="32" fill="120"/>
<rect x="260" y="88" width="4" height="32" fill="120"/>
<rect x="264" y="88" width="4" height="32" fill="120"/>
<rect x="268" y="88" width="4" height="32" fill="120"/>
<rect x="272" y="88" width="4" height="32" fill="120"/>
<rect x="276" y="88" width="4" height="32" fill="120"/>
<rect x="280" y="88" width="4" height="32" fill="120"/>
<rect x="284" y="88" width="4" height="32" fill="120"/>
<rect x="288" y="88" width="4" height="32" fill="120"/>
<rect x="292" y="88" width="4" height="32" fill="120"/>
<rect x="296" y="88" width="4" height="32" fill="120"/>
<rect x="300" y="88" width="4" height="32" fill="120"/>
<rect x="304" y="96" width="4" height="24" fill="120"/>
<rect x="308" y="96" width="4" height="24" fill="120"/>
<rect x="312" y="96" width="4" height="24" fill="120"/>
<rect x="316" y="96" width="4" height="24" fill="120"/>
<rect x="320" y="96" width="4" height="24" fill="120"/>
<rect x="324" y="96" width="4" height="24" fill="120"/>
<rect x="328" y="96" width="4" height="24" fill="120"/>
<rect x="332" y="96" width="4" height="24" fill="120"/>
<rect x="336" y="96" width="4" height="24" fill="120"/>
<rect x="340" y="96" width="4" height="24" fill="120"/>
<rect x="344" y="96" width="4" height="24" fill="120"/>
<rect x="348" y="96" width="4" height="24" fill="120"/>
<rect x="352" y="96" width="4" height="24" fill="120"/>
<rect x="356" y="96" width="4" height="24" fill="120"/>
<rect x="360" y="96" width="4" height="24" fill="120"/>
<rect x="364" y="96" width="4" height="24" fill="120"/>
<rect x="368" y="96" width="4" height="24" fill="120"/>
<rect x="372" y="104" width="4" height="16" fill="120"/>
<rect x="376" y="104" width="4" height="16" fill="120"/>
<rect x="380" y="104" width="4" height="16" fill="120"/>
<rect x="384" y="104" width="4" height="16" fill="120"/>
<rect x="388" y="104" width="4" height="16" fill="120"/>
<rect x="392" y="104" width="4" height="16" fill="120"/>
<rect x="396" y="104" width="4" height="16" fill="120"/>
<rect x="400" y="104" width="4" height="16" fill="120"/>
<rect x="404" y="104" width="4" height="16" fill="120"/>
<rect x="408" y="104" width="4" height="16" fill="120"/>
<rect x="412" y="104" width="4" height="16" fill="120"/>
<rect x="416" y="104" width="4" height="16" fill="120"/>
<rect x="420" y="104" width="4" height="16" fill="120"/>
<rect x="424" y="104" width="4" height="16" fill="120"/>
<rect x="428" y="104" width="4" height="16" fill="120"/>
<rect x="432" y="104" width="4" height="16" fill="120"/>
<rect x="436" y="104" width="4" height="16" fill="120"/>
<rect x="440" y="112" width="4" height="8" fill="120"/>
<rect x="444" y="112" width="4" height="8" fill="120"/>
<rect x="448" y="112" width="4" height="8" fill="120"/>
<rect x="452" y="112" width="4" height="8" fill="120"/>
<rect x="456" y="112" width="4" height="8" fill="120"/>
<rect x="460" y="112" width="4" height="8" fill="120"/>
<rect x="464" y="112" width="4" height="8" fill="120"/>
<rect x="468" y="112" width="4" height="8" fill="120"/>
<rect x="472" y="112" width="4" height="8" fill="120"/>
<rect x="476" y="112" width="4" height="8" fill="120"/>
<rect x="480" y="112" width="4" height="8" fill="120"/>
<rect x="484" y="112" width="4" height="8" fill="120"/>
<rect x="488" y="112" width="4" height="8" fill="120"/>
<rect x="492" y="112" width="4" height="8" fill="120"/>
<rect x="496" y="112" width="4" height="8" fill="120"/>
<rect x="500" y="112" width="4" height="8" fill="120"/>
<rect x="504" y="112" width="4" height="8" fill="120"/>
<rect x="508" y="112" width="4" height="8" fill="120"/>
<rect x="512" y="112" width="4" height="8" fill="120"/>
<rect x="516" y="120" width="4" height="0" fill="120"/>
<rect x="520" y="120" width="4" height="0" fill="120"/>
<rect x="524" y="120" width="4" height="0" fill="120"/>
<rect x="528" y="120" width="4" height="0" fill="120"/>
<rect x="532" y="120" width="4" height="0" fill="120"/>
<rect x="536" y="120" width="4" height="0" fill="120"/>
<rect x="540" y="120" width="4" height="0" fill="120"/>
<rect x="544" y="120" width="4" height="0" fill="120"/>
<rect x="548" y="120" width="4" height="0" fill="120"/>
<rect x="552" y="120" width="4" height="0" fill="120"/>
<rect x="556" y="120" width="4" height="0" fill="120"/>
<rect x="560" y="120" width="4" height="0" fill="120"/>
<rect x="564" y="120" width="4" height="0" fill="120"/>
<rect x="568" y="120" width="4" height="0" fill="120"/>
<rect x="572" y="120" width="4" height="0" fill="120"/>
<rect x="576" y="120" width="4" height="0" fill="120"/>
<rect x="580" y="120" width="4" height="0" fill="120"/>
<rect x="584" y="120" width="4" height="0" fill="120"/>
<rect x="588" y="120" width="4" height="0" fill="120"/>
<rect x="592" y="120" width="4" height="0" fill="120"/>
<rect x="596" y="120" width="4" height="0" fill="120"/>
<rect x="600" y="120" width="4" height="0" fill="120"/>
<rect x="604" y="120" width="4" height="0" fill="120"/>
<rect x="608" y="120" width="4" height="0" fill="120"/>
<rect x="612" y="120" width="4" height="0" fill="120"/>
<rect x="616" y="120" width="4" height="0" fill="120"/>
<rect x="620" y="120" width="4" height="0" fill="120"/>
<rect x="624" y="120" width="4" height="0" fill="120"/>
<rect x="628" y="120" width="4" height="0" fill="120"/>
<rect x="632" y="120" width="4" height="0" fill="120"/>
<rect x="636" y="120" width="4" height="0" fill="120"/>
<rect x="640" y="120" width="4" height="0" fill="120"/>
<rect x="644" y="120" width="4" height="0" fill="120"/>
<rect x="648" y="120" width="4" height="0" fill="120"/>
<rect x="652" y="120" width="4" height="0" fill="120"/>
<rect x="656" y="120" width="4" height="0" fill="120"/>
<rect x="660" y="120" width="4" height="0" fill="120"/>
<rect x="664" y="120" width="4" height="0" fill="120"/>
<rect x="668" y="120" width="4" height="0" fill="120"/>
<rect x="672" y="120" width="4" height="0" fill="120"/>
<rect x="676" y="120" width="4" height="0" fill="120"/>
<rect x="680" y="120" width="4" height="0" fill="120"/>
<rect x="684" y="120" width="4" height="0" fill="120"/>
<rect x="688" y="120" width="4" height="0" fill="120"/>
<rect x="692" y="120" width="4" height="0" fill="120"/>
<rect x="696" y="120" width="4" height="0" fill="120"/>
<rect x="700" y="120" width="4" height="0" fill="120"/>
<rect x="704" y="120" width="4" height="0" fill="120"/>
<rect x="708" y="120" width="4" height="0" fill="120"/>
<rect x="712" y="120" width="4" height="0" fill="120"/>
<rect x="716" y="120" width="4" height="0" fill="120"/>
<rect x="720" y="120" width="4" height="0" fill="120"/>
<rect x="724" y="120" width="4" height="0" fill="120"/>
<rect x="728" y="120" width="4" height="0" fill="120"/>
<rect x="732" y="120" width="4" height="0" fill="120"/>
<rect x="736" y="120" width="4" height="0" fill="120"/>
<rect x="740" y="120" width="4" height="0" fill="120"/>
<rect x="744" y="120" width="4" height="0" fill="120"/>
<rect x="748" y="120" width="4" height="0" fill="120"/>
<rect x="752" y="120" width="4" height="0" fill="120"/>
<rect x="756" y="120" width="4" height="0" fill="120"/>
<rect x="760" y="120" width="4" height="0" fill="120"/>
<rect x="764" y="120" width="4" height="0" fill="120"/>
<rect x="768" y="120" width="4" height="0" fill="120"/>
<rect x="772" y="120" width="4" height="0" fill="120"/>
<rect x="776" y="120" width="4" height="0" fill="120"/>
<rect x="780" y="120" width="4" height="0" fill="120"/>
<rect x="784" y="120" width="4" height="0" fill="120"/>
<rect x="788" y="120" width="4" height="0" fill="120"/>
<rect x="792" y="120" width="4" height="0" fill="120"/>
<rect x="796" y="120" width="4" height="0" fill="120"/>
<rect x="0" y="104" width="4" height="16" fill="#e8eaed"/>
<rect x="4" y="104" width="4" height="16" fill="#e8eaed"/>
<rect x="8" y="104" width="4" height="16" fill="#e8eaed"/>
<rect x="12" y="104" width="4" height="16" fill="#e8eaed"/>
<rect x="16" y="104" width="4" height="16" fill="#e8eaed"/>
<rect x="20" y="104" width="4" height="16" fill="#e8eaed"/>
<rect x="24" y="104" width="4" height="16" fill="#e8eaed"/>
<rect x="28" y="104" width="4" height="16" fill="#e8eaed"/>
<rect x="32" y="104" width="4" height="16" fill="#e8eaed"/>
<rect x="36" y="104" width="4" height="16" fill="#e8eaed"/>
<rect x="40" y="104" width="4" height="16" fill="#e8eaed"/>
<rect x="44" y="104" width="4" height="16" fill="#e8eaed"/>
<rect x="48" y="104" width="4" height="16" fill="#e8eaed"/>
<rect x="52" y="112" width="4" height="8" fill="#e8eaed"/>
<rect x="56" y="112" width="4" height="8" fill="#e8eaed"/>
<rect x="60" y="112" width="4" height="8" fill="#e8eaed"/>
<rect x="64" y="112" width="4" height="8" fill="#e8eaed"/>
<rect x="68" y="112" width="4" height="8" fill="#e8eaed"/>
<rect x="72" y="112" width="4" height="8" fill="#e8eaed"/>
<rect x="76" y="112" width="4" height="8" fill="#e8eaed"/>
<rect x="80" y="112" width="4" height="8" fill="#e8eaed"/>
<rect x="84" y="112" width="4" height="8" fill="#e8eaed"/>
<rect x="88" y="112" width="4" height="8" fill="#e8eaed"/>
<rect x="92" y="112" width="4" height="8" fill="#e8eaed"/>
<rect x="96" y="112" width="4" height="8" fill="#e8eaed"/>
<rect x="100" y="112" width="4" height="8" fill="#e8eaed"/>
<rect x="104" y="112" width="4" height="8" fill="#e8eaed"/>
<rect x="108" y="112" width="4" height="8" fill="#e8eaed"/>
<rect x="112" y="112" width="4" height="8" fill="#e8eaed"/>
<rect x="116" y="112" width="4" height="8" fill="#e8eaed"/>
<rect x="120" y="112" width="4" height="8" fill="#e8eaed"/>
<rect x="124" y="120" width="4" height="0" fill="#e8eaed"/>
<rect x="128" y="120" width="4" height="0" fill="#e8eaed"/>
<rect x="132" y="120" width="4" height="0" fill="#e8eaed"/>
<rect x="136" y="120" width="4" height="0" fill="#e8eaed"/>
<rect x="140" y="120" width="4" height="0" fill="#e8eaed"/>
<rect x="144" y="120" width="4" height="0" fill="#e8eaed"/>
<rect x="148" y="120" width="4" height="0" fill="#e8eaed"/>
<rect x="152" y="120" width="4" height="0" fill="#e8eaed"/>
<rect x="156" y="120" width="4" height="0" fill="#e8eaed"/>
<rect x="160" y="120" width="4" height="0" fill="#e8eaed"/>
<rect x="164" y="120" width="4" height="0" fill="#e8eaed"/>
<rect x="168" y="120" width="4" height="0" fill="#e8eaed"/>
<rect x="172" y="120" width="4" height="0" fill="#e8eaed"/>
<rect x="176" y="120" width="4" height="0" fill="#e8eaed"/>
<rect x="180" y="120" width="4" height="0" fill="#e8eaed"/>
<rect x="184" y="120" width="4" height="0" fill="#e8eaed"/>
<rect x="188" y="120" width="4" height="0" fill="#e8eaed"/>
<rect x="192" y="120" width="4" height="0" fill="#e8eaed"/>
<rect x="196" y="120" width="4" height="0" fill="#e8eaed"/>
<rect x="200" y="120" width="4" height="0" fill="#e8eaed"/>
<rect x="204" y="120" width="4" height="0" fill="#e8eaed"/>
<rect x="208" y="120" width="4" height="0" fill="#e8eaed"/>
<rect x="212" y="120" width="4" height="0" fill="#e8eaed"/>
<rect x="216" y="120" width="4" height="0" fill="#e8eaed"/>
<rect x="220" y="120" width="4" height="0" fill="#e8eaed"/>
<rect x="224" y="120" width="4" height="0" fill="#e8eaed"/>
<rect x="228" y="120" width="4" height="0" fill="#e8eaed"/>
<rect x="232" y="120" width="4" height="0" fill="#e8eaed"/>
<rect x="236" y="120" width="4" height="0" fill="#e8eaed"/>
<rect x="240" y="120" width="4" height="0" fill="#e8eaed"/>
<rect x="244" y="120" width="4" height="0" fill="#e8eaed"/>
<rect x="248" y="120" width="4" height="0" fill="#e8eaed"/>
<rect x="252" y="120" width="4" height="0" fill="#e8eaed"/>
<rect x="256" y="120" width="4" height="0" fill="#e8eaed"/>
<rect x="260" y="120" width="4" height="0" fill="#e8eaed"/>
<rect x="264" y="120" width="4" height="0" fill="#e8eaed"/>
<rect x="268" y="120" width="4" height="0" fill="#e8eaed"/>
<rect x="272" y="120" width="4" height="0" fill="#e8eaed"/>
<rect x="276" y="120" width="4" height="0" fill="#e8eaed"/>
<rect x="280" y="120" width="4" height="0" fill="#e8eaed"/>
<rect x="284" y="120" width="4" height="0" fill="#e8eaed"/>
<rect x="288" y="120" width="4" height="0" fill="#e8eaed"/>
<rect x="292" y="120" width="4" height="0" fill="#e8eaed"/>
<rect x="296" y="120" width="4" height="0" fill="#e8eaed"/>
<rect x="300" y="120" width="4" height="0" fill="#e8eaed"/>
<rect x="304" y="120" width="4" height="0" fill="#e8eaed"/>
<rect x="308" y="120" width="4" height="0" fill="#e8eaed"/>
<rect x="312" y="120" width="4" height="0" fill="#e8eaed"/>
<rect x="316" y="120" width="4" height="0" fill="#e8eaed"/>
<rect x="320" y="120" width="4" height="0" fill="#e8eaed"/>
<rect x="324" y="120" width="4" height="0" fill="#e8eaed"/>
<rect x="328" y="120" width="4" height="0" fill="#e8eaed"/>
<rect x="332" y="120" width="4" height="0" fill="#e8eaed"/>
<rect x="336" y="120" width="4" height="0" fill="#e8eaed"/>
<rect x="340" y="120" width="4" height="0" fill="#e8eaed"/>
<rect x="344" y="120" width="4" height="0" fill="#e8eaed"/>
<rect x="348" y="120" width="4" height="0" fill="#e8eaed"/>
<rect x="352" y="120" width="4" height="0" fill="#e8eaed"/>
<rect x="356" y="120" width="4" height="0" fill="#e8eaed"/>
<rect x="360" y="120" width="4" height="0" fill="#e8eaed"/>
<rect x="364" y="120" width="4" height="0" fill="#e8eaed"/>
<rect x="368" y="120" width="4" height="0" fill="#e8eaed"/>
<rect x="372" y="120" width="4" height="0" fill="#e8eaed"/>
<rect x="376" y="120" width="4" height="0" fill="#e8eaed"/>
<rect x="380" y="120" width="4" height="0" fill="#e8eaed"/>
<rect x="384" y="120" width="4" height="0" fill="#e8eaed"/>
<rect x="388" y="120" width="4" height="0" fill="#e8eaed"/>
<rect x="392" y="120" width="4" height="0" fill="#e8eaed"/>
<rect x="396" y="120" width="4" height="0" fill="#e8eaed"/>
<rect x="400" y="120" width="4" height="0" fill="#e8eaed"/>
<rect x="404" y="120" width="4" height="0" fill="#e8eaed"/>
<rect x="408" y="112" width="4" height="8" fill="#e8eaed"/>
<rect x="412" y="112" width="4" height="8" fill="#e8eaed"/>
<rect x="416" y="112" width="4" height="8" fill="#e8eaed"/>
<rect x="420" y="112" width="4" height="8" fill="#e8eaed"/>
<rect x="424" y="112" width="4" height="8" fill="#e8eaed"/>
<rect x="428" y="112" width="4" height="8" fill="#e8eaed"/>
<rect x="432" y="112" width="4" height="8" fill="#e8eaed"/>
<rect x="436" y="112" width="4" height="8" fill="#e8eaed"/>
<rect x="440" y="112" width="4" height="8" fill="#e8eaed"/>
<rect x="444" y="112" width="4" height="8" fill="#e8eaed"/>
<rect x="448" y="112" width="4" height="8" fill="#e8eaed"/>
<rect x="452" y="112" width="4" height="8" fill="#e8eaed"/>
<rect x="456" y="112" width="4" height="8" fill="#e8eaed"/>
<rect x="460" y="112" width="4" height="8" fill="#e8eaed"/>
<rect x="464" y="112" width="4" height="8" fill="#e8eaed"/>
<rect x="468" y="112" width="4" height="8" fill="#e8eaed"/>
<rect x="472" y="112" width="4" height="8" fill="#e8eaed"/>
<rect x="476" y="112" width="4" height="8" fill="#e8eaed"/>
<rect x="480" y="104" width="4" height="16" fill="#e8eaed"/>
<rect x="484" y="104" width="4" height="16" fill="#e8eaed"/>
<rect x="488" y="104" width="4" height="16" fill="#e8eaed"/>
<rect x="492" y="104" width="4" height="16" fill="#e8eaed"/>
<rect x="496" y="104" width="4" height="16" fill="#e8eaed"/>
<rect x="500" y="104" width="4" height="16" fill="#e8eaed"/>
<rect x="504" y="104" width="4" height="16" fill="#e8eaed"/>
<rect x="508" y="104" width="4" height="16" fill="#e8eaed"/>
<rect x="512" y="104" width="4" height="16" fill="#e8eaed"/>
<rect x="516" y="104" width="4" height="16" fill="#e8eaed"/>
<rect x="520" y="104" width="4" height="16" fill="#e8eaed"/>
<rect x="524" y="104" width="4" height="16" fill="#e8eaed"/>
<rect x="528" y="104" width="4" height="16" fill="#e8eaed"/>
<rect x="532" y="104" width="4" height="16" fill="#e8eaed"/>
<rect x="536" y="104" width="4" height="16" fill="#e8eaed"/>
<rect x="540" y="104" width="4" height="16" fill="#e8eaed"/>
<rect x="544" y="104" width="4" height="16" fill="#e8eaed"/>
<rect x="548" y="104" width="4" height="16" fill="#e8eaed"/>
<rect x="552" y="104" width="4" height="16" fill="#e8eaed"/>
<rect x="556" y="104" width="4" height="16" fill="#e8eaed"/>
<rect x="560" y="96" width="4" height="24" fill="#e8eaed"/>
<rect x="564" y="96" width="4" height="24" fill="#e8eaed"/>
<rect x="568" y="96" width="4" height="24" fill="#e8eaed"/>
<rect x="572" y="96" width="4" height="24" fill="#e8eaed"/>
<rect x="576" y="96" width="4" height="24" fill="#e8eaed"/>
<rect x="580" y="96" width="4" height="24" fill="#e8eaed"/>
<rect x="584" y="96" width="4" height="24" fill="#e8eaed"/>
<rect x="588" y="96" width="4" height="24" fill="#e8eaed"/>
<rect x="592" y="96" width="4" height="24" fill="#e8eaed"/>
<rect x="596" y="96" width="4" height="24" fill="#e8eaed"/>
<rect x="600" y="96" width="4" height="24" fill="#e8eaed"/>
<rect x="604" y="96" width="4" height="24" fill="#e8eaed"/>
<rect x="608" y="96" width="4" height="24" fill="#e8eaed"/>
<rect x="612" y="96" width="4" height="24" fill="#e8eaed"/>
<rect x="616" y="96" width="4" height="24" fill="#e8eaed"/>
<rect x="620" y="96" width="4" height="24" fill="#e8eaed"/>
<rect x="624" y="96" width="4" height="24" fill="#e8eaed"/>
<rect x="628" y="96" width="4" height="24" fill="#e8eaed"/>
<rect x="632" y="96" width="4" height="24" fill="#e8eaed"/>
<rect x="636" y="96" width="4" height="24" fill="#e8eaed"/>
<rect x="640" y="96" width="4" height="24" fill="#e8eaed"/>
<rect x="644" y="96" width="4" height="24" fill="#e8eaed"/>
<rect x="648" y="96" width="4" height="24" fill="#e8eaed"/>
<rect x="652" y="96" width="4" height="24" fill="#e8eaed"/>
<rect x="656" y="96" width="4" height="24" fill="#e8eaed"/>
<rect x="660" y="96" width="4" height="24" fill="#e8eaed"/>
<rect x="664" y="96" width="4" height="24" fill="#e8eaed"/>
<rect x="668" y="96" width="4" height="24" fill="#e8eaed"/>
<rect x="672" y="96" width="4" height="24" fill="#e8eaed"/>
<rect x="676" y="96" width="4" height="24" fill="#e8eaed"/>
<rect x="680" y="96" width="4" height="24" fill="#e8eaed"/>
<rect x="684" y="96" width="4" height="24" fill="#e8eaed"/>
<rect x="688" y="96" width="4" height="24" fill="#e8eaed"/>
<rect x="692" y="96" width="4" height="24" fill="#e8eaed"/>
<rect x="696" y="96" width="4" height="24" fill="#e8eaed"/>
<rect x="700" y="96" width="4" height="24" fill="#e8eaed"/>
<rect x="704" y="96" width="4" height="24" fill="#e8eaed"/>
<rect x="708" y="96" width="4" height="24" fill="#e8eaed"/>
<rect x="712" y="96" width="4" height="24" fill="#e8eaed"/>
<rect x="716" y="96" width="4" height="24" fill="#e8eaed"/>
<rect x="720" y="96" width="4" height="24" fill="#e8eaed"/>
<rect x="724" y="96" width="4" height="24" fill="#e8eaed"/>
<rect x="728" y="96" width="4" height="24" fill="#e8eaed"/>
<rect x="732" y="96" width="4" height="24" fill="#e8eaed"/>
<rect x="736" y="96" width="4" height="24" fill="#e8eaed"/>
<rect x="740" y="96" width="4" height="24" fill="#e8eaed"/>
<rect x="744" y="96" width="4" height="24" fill="#e8eaed"/>
<rect x="748" y="96" width="4" height="24" fill="#e8eaed"/>
<rect x="752" y="96" width="4" height="24" fill="#e8eaed"/>
<rect x="756" y="104" width="4" height="16" fill="#e8eaed"/>
<rect x="760" y="104" width="4" height="16" fill="#e8eaed"/>
<rect x="764" y="104" width="4" height="16" fill="#e8eaed"/>
<rect x="768" y="104" width="4" height="16" fill="#e8eaed"/>
<rect x="772" y="104" width="4" height="16" fill="#e8eaed"/>
<rect x="776" y="104" width="4" height="16" fill="#e8eaed"/>
<rect x="780" y="104" width="4" height="16" fill="#e8eaed"/>
<rect x="784" y="104" width="4" height="16" fill="#e8eaed"/>
<rect x="788" y="104" width="4" height="16" fill="#e8eaed"/>
<rect x="792" y="104" width="4" height="16" fill="#e8eaed"/>
<rect x="796" y="104" width="4" height="16" fill="#e8eaed"/>
<rect x="0" y="114" width="8" height="2" fill="#3c4043"/>
<rect x="16" y="114" width="8" height="2" fill="#3c4043"/>
<rect x="32" y="114" width="8" height="2" fill="#3c4043"/>
<rect x="48" y="114" width="8" height="2" fill="#3c4043"/>
<rect x="64" y="114" width="8" height="2" fill="#3c4043"/>
<rect x="80" y="114" width="8" height="2" fill="#3c4043"/>
<rect x="96" y="114" width="8" height="2" fill="#3c4043"/>
<rect x="112" y="114" width="8" height="2" fill="#3c4043"/>
<rect x="128" y="114" width="8" height="2" fill="#3c4043"/>
<rect x="144" y="114" width="8" height="2" fill="#3c4043"/>
<rect x="160" y="114" width="8" height="2" fill="#3c4043"/>
<rect x="176" y="114" width="8" height="2" fill="#3c4043"/>
<rect x="192" y="114" width="8" height="2" fill="#3c4043"/>
<rect x="208" y="114" width="8" height="2" fill="#3c4043"/>
<rect x="224" y="114" width="8" height="2" fill="#3c4043"/>
<rect x="240" y="114" width="8" height="2" fill="#3c4043"/>
<rect x="256" y="114" width="8" height="2" fill="#3c4043"/>
<rect x="272" y="114" width="8" height="2" fill="#3c4043"/>
<rect x="288" y="114" width="8" height="2" fill="#3c4043"/>
<rect x="304" y="114" width="8" height="2" fill="#3c4043"/>
<rect x="320" y="114" width="8" height="2" fill="#3c4043"/>
<rect x="336" y="114" width="8" height="2" fill="#3c4043"/>
<rect x="352" y="114" width="8" height="2" fill="#3c4043"/>
<rect x="368" y="114" width="8" height="2" fill="#3c4043"/>
<rect x="384" y="114" width="8" height="2" fill="#3c4043"/>
<rect x="400" y="114" width="8" height="2" fill="#3c4043"/>
<rect x="416" y="114" width="8" height="2" fill="#3c4043"/>
<rect x="432" y="114" width="8" height="2" fill="#3c4043"/>
<rect x="448" y="114" width="8" height="2" fill="#3c4043"/>
<rect x="464" y="114" width="8" height="2" fill="#3c4043"/>
<rect x="480" y="114" width="8" height="2" fill="#3c4043"/>
<rect x="496" y="114" width="8" height="2" fill="#3c4043"/>
<rect x="512" y="114" width="8" height="2" fill="#3c4043"/>
<rect x="528" y="114" width="8" height="2" fill="#3c4043"/>
<rect x="544" y="114" width="8" height="2" fill="#3c4043"/>
<rect x="560" y="114" width="8" height="2" fill="#3c4043"/>
<rect x="576" y="114" width="8" height="2" fill="#3c4043"/>
<rect x="592" y="114" width="8" height="2" fill="#3c4043"/>
<rect x="608" y="114" width="8" height="2" fill="#3c4043"/>
<rect x="624" y="114" width="8" height="2" fill="#3c4043"/>
<rect x="640" y="114" width="8" height="2" fill="#3c4043"/>
<rect x="656" y="114" width="8" height="2" fill="#3c4043"/>
<rect x="672" y="114" width="8" height="2" fill="#3c4043"/>
<rect x="688" y="114" width="8" height="2" fill="#3c4043"/>
<rect x="704" y="114" width="8" height="2" fill="#3c4043"/>
<rect x="720" y="114" width="8" height="2" fill="#3c4043"/>
<rect x="736" y="114" width="8" height="2" fill="#3c4043"/>
<rect x="752" y="114" width="8" height="2" fill="#3c4043"/>
<rect x="768" y="114" width="8" height="2" fill="#3c4043"/>
<rect x="784" y="114" width="8" height="2" fill="#3c4043"/>
<rect x="684" y="20" width="36" height="36" fill="#fbbc04"/>
<rect x="700" y="12" width="4" height="8" fill="#fbbc04"/>
<rect x="700" y="56" width="4" height="8" fill="#fbbc04"/>
<rect x="676" y="34" width="8" height="4" fill="#fbbc04"/>
<rect x="720" y="34" width="8" height="4" fill="#fbbc04"/>
<rect x="90" y="30" width="64" height="8" fill="#e8eaed"/>
<rect x="98" y="26" width="48" height="4" fill="#e8eaed"/>
<rect x="106" y="22" width="32" height="4" fill="#e8eaed"/>
<rect x="150" y="42" width="48" height="8" fill="#e8eaed"/>
<rect x="158" y="38" width="32" height="4" fill="#e8eaed"/>
<rect x="166" y="34" width="16" height="4" fill="#e8eaed"/>
<rect x="430" y="26" width="56" height="8" fill="#e8eaed"/>
<rect x="438" y="22" width="40" height="4" fill="#e8eaed"/>
<rect x="446" y="18" width="24" height="4" fill="#e8eaed"/>
<rect x="540" y="48" width="40" height="8" fill="#e8eaed"/>
<rect x="548" y="44" width="24" height="4" fill="#e8eaed"/>
<rect x="556" y="40" width="8" height="4" fill="#e8eaed"/>
<rect x="161" y="96" width="3" height="3" fill="#5f6368"/>
<rect x="161" y="99" width="3" height="3" fill="#5f6368"/>
<rect x="167" y="99" width="3" height="3" fill="#5f6368"/>
<rect x="161" y="102" width="3" height="3" fill="#5f6368"/>
<rect x="167" y="102" width="3" height="3" fill="#5f6368"/>
<rect x="158" y="105" width="3" height="3" fill="#5f6368"/>
<rect x="161" y="105" width="3" height="3" fill="#5f6368"/>
<rect x="164" y="105" width="3" height="3" fill="#5f6368"/>
<rect x="167" y="105" width="3" height="3" fill="#5f6368"/>
<rect x="161" y="108" width="3" height="3" fill="#5f6368"/>
<rect x="161" y="111" width="3" height="3" fill="#5f6368"/>
<rect x="605" y="92" width="3" height="3" fill="#5f6368"/>
<rect x="605" y="95" width="3" height="3" fill="#5f6368"/>
<rect x="611" y="95" width="3" height="3" fill="#5f6368"/>
<rect x="605" y="98" width="3" height="3" fill="#5f6368"/>
<rect x="611" y="98" width="3" height="3" fill="#5f6368"/>
<rect x="602" y="101" width="3" height="3" fill="#5f6368"/>
<rect x="605" y="101" width="3" height="3" fill="#5f6368"/>
<rect x="608" y="101" width="3" height="3" fill="#5f6368"/>
<rect x="611" y="101" width="3" height="3" fill="#5f6368"/>
<rect x="605" y="104" width="3" height="3" fill="#5f6368"/>
<rect x="605" y="107" width="3" height="3" fill="#5f6368"/>
<rect x="252" y="84" width="3" height="3" fill="#3c4043"/>
<rect x="255" y="84" width="3" height="3" fill="#3c4043"/>
<rect x="258" y="84" width="3" height="3" fill="#3c4043"/>
<rect x="261" y="84" width="3" height="3" fill="#3c4043"/>
<rect x="264" y="84" width="3" height="3" fill="#3c4043"/>
<rect x="267" y="84" width="3" height="3" fill="#3c4043"/>
<rect x="249" y="87" width="3" height="3" fill="#3c4043"/>
<rect x="252" y="87" width="3" height="3" fill="#3c4043"/>
<rect x="255" y="87" width="3" height="3" fill="#3c4043"/>
<rect x="258" y="87" width="3" height="3" fill="#3c4043"/>
<rect x="261" y="87" width="3" height="3" fill="#3c4043"/>
<rect x="264" y="87" width="3" height="3" fill="#3c4043"/>
<rect x="267" y="87" width="3" height="3" fill="#3c4043"/>
<rect x="270" y="87" width="3" height="3" fill="#3c4043"/>
<rect x="249" y="90" width="3" height="3" fill="#3c4043"/>
<rect x="252" y="90" width="3" height="3" fill="#3c4043"/>
<rect x="255" y="90" width="3" height="3" fill="#3c4043"/>
<rect x="258" y="90" width="3" height="3" fill="#3c4043"/>
<rect x="264" y="90" width="3" height="3" fill="#3c4043"/>
<rect x="267" y="90" width="3" height="3" fill="#3c4043"/>
<rect x="270" y="90" width="3" height="3" fill="#3c4043"/>
<rect x="273" y="90" width="3" height="3" fill="#3c4043"/>
<rect x="246" y="93" width="3" height="3" fill="#3c4043"/>
<rect x="249" y="93" width="3" height="3" fill="#3c4043"/>
<rect x="252" y="93" width="3" height="3" fill="#3c4043"/>
<rect x="255" y="93" width="3" height="3" fill="#3c4043"/>
<rect x="264" y="93" width="3" height="3" fill="#3c4043"/>
<rect x="267" y="93" width="3" height="3" fill="#3c4043"/>
<rect x="270" y="93" width="3" height="3" fill="#3c4043"/>
<rect x="273" y="93" width="3" height="3" fill="#3c4043"/>
<rect x="246" y="96" width="3" height="3" fill="#3c4043"/>
<rect x="249" y="96" width="3" height="3" fill="#3c4043"/>
<rect x="252" y="96" width="3" height="3" fill="#3c4043"/>
<rect x="255" y="96" width="3" height="3" fill="#3c4043"/>
<rect x="258" y="96" width="3" height="3" fill="#3c4043"/>
<rect x="261" y="96" width="3" height="3" fill="#3c4043"/>
<rect x="264" y="96" width="3" height="3" fill="#3c4043"/>
<rect x="267" y="96" width="3" height="3" fill="#3c4043"/>
<rect x="270" y="96" width="3" height="3" fill="#3c4043"/>
<rect x="273" y="96" width="3" height="3" fill="#3c4043"/>
<rect x="246" y="99" width="3" height="3" fill="#3c4043"/>
<rect x="249" y="99" width="3" height="3" fill="#3c4043"/>
<rect x="270" y="99" width="3" height="3" fill="#3c4043"/>
<rect x="273" y="99" width="3" height="3" fill="#3c4043"/>
<rect x="246" y="102" width="3" height="3" fill="#3c4043"/>
<rect x="249" y="102" width="3" height="3" fill="#3c4043"/>
<rect x="270" y="102" width="3" height="3" fill="#3c4043"/>
<rect x="273" y="102" width="3" height="3" fill="#3c4043"/>
<rect x="246" y="105" width="3" height="3" fill="#3c4043"/>
<rect x="249" y="105" width="3" height="3" fill="#3c4043"/>
<rect x="270" y="105" width="3" height="3" fill="#3c4043"/>
<rect x="273" y="105" width="3" height="3" fill="#3c4043"/>
<rect x="243" y="108" width="3" height="3" fill="#3c4043"/>
<rect x="246" y="108" width="3" height="3" fill="#3c4043"/>
<rect x="249" y="108" width="3" height="3" fill="#3c4043"/>
<rect x="252" y="108" width="3" height="3" fill="#3c4043"/>
<rect x="255" y="108" width="3" height="3" fill="#3c4043"/>
<rect x="258" y="108" width="3" height="3" fill="#3c4043"/>
<rect x="261" y="108" width="3" height="3" fill="#3c4043"/>
<rect x="264" y="108" width="3" height="3" fill="#3c4043"/>
<rect x="267" y="108" width="3" height="3" fill="#3c4043"/>
<rect x="270" y="108" width="3" height="3" fill="#3c4043"/>
<rect x="273" y="108" width="3" height="3" fill="#3c4043"/>
<rect x="246" y="111" width="3" height="3" fill="#3c4043"/>
<rect x="249" y="111" width="3" height="3" fill="#3c4043"/>
<rect x="252" y="111" width="3" height="3" fill="#3c4043"/>
<rect x="255" y="111" width="3" height="3" fill="#3c4043"/>
<rect x="264" y="111" width="3" height="3" fill="#3c4043"/>
<rect x="267" y="111" width="3" height="3" fill="#3c4043"/>
<rect x="270" y="111" width="3" height="3" fill="#3c4043"/>
<rect x="273" y="111" width="3" height="3" fill="#3c4043"/>
<rect x="300" y="44" width="3" height="3" fill="#9aa0a6"/>
<rect x="312" y="44" width="3" height="3" fill="#9aa0a6"/>
<rect x="303" y="47" width="3" height="3" fill="#9aa0a6"/>
<rect x="309" y="47" width="3" height="3" fill="#9aa0a6"/>
<rect x="306" y="50" width="3" height="3" fill="#9aa0a6"/>
<rect x="352" y="34" width="3" height="3" fill="#9aa0a6"/>
<rect x="364" y="34" width="3" height="3" fill="#9aa0a6"/>
<rect x="355" y="37" width="3" height="3" fill="#9aa0a6"/>
<rect x="361" y="37" width="3" height="3" fill="#9aa0a6"/>
<rect x="358" y="40" width="3" height="3" fill="#9aa0a6"/>
<rect x="470" y="54" width="3" height="3" fill="#9aa0a6"/>
<rect x="482" y="54" width="3" height="3" fill="#9aa0a6"/>
<rect x="473" y="57" width="3" height="3" fill="#9aa0a6"/>
<rect x="479" y="57" width="3" height="3" fill="#9aa0a6"/>
<rect x="476" y="60" width="3" height="3" fill="#9aa0a6"/>
</svg>